<?xml version="1.0" encoding="UTF-8" standalone="no"?>
<!DOCTYPE svg PUBLIC "-//W3C//DTD SVG 1.1//EN" "http://www.w3.org/Graphics/SVG/1.1/DTD/svg11.dtd">
<svg width="100%" height="100%" viewBox="0 0 33 33" version="1.1" xmlns="http://www.w3.org/2000/svg" xmlns:xlink="http://www.w3.org/1999/xlink" xml:space="preserve" xmlns:serif="http://www.serif.com/" style="fill-rule:evenodd;clip-rule:evenodd;stroke-linejoin:round;stroke-miterlimit:1.41421;">
    <g transform="matrix(1,0,0,1,-27.1094,-21.3135)">
        <g transform="matrix(0.399554,0,0,1.19656,-46.8444,-20.3059)">
            <path d="M226.078,34.783C229.88,34.87 230.368,35.195 231.468,35.543C234.691,36.561 234.844,38.403 231.633,39.536L213.533,45.58L258.774,45.584C267.135,45.815 269.656,51.047 258.314,51.151L213.533,51.151L231.949,57.307C237.501,59.496 228.075,63.739 219.834,61.135C209.054,57.535 198.273,53.936 187.493,50.335C187.243,50.252 187.008,50.161 186.791,50.068C184.372,49.021 184.473,47.461 187.493,46.396L219.834,35.596C221.534,35.059 223.721,34.772 226.078,34.783Z" style="fill:white;fill-rule:nonzero;"/>
        </g>
    </g>
</svg>
