<?xml version="1.0" encoding="UTF-8" standalone="no"?>
<!DOCTYPE svg PUBLIC "-//W3C//DTD SVG 1.1//EN" "http://www.w3.org/Graphics/SVG/1.1/DTD/svg11.dtd">
<svg preserveAspectRatio="none" width="100%" height="100%" viewBox="0 0 451 227" version="1.1" xmlns="http://www.w3.org/2000/svg" xmlns:xlink="http://www.w3.org/1999/xlink" xml:space="preserve" xmlns:serif="http://www.serif.com/" style="fill-rule:evenodd;clip-rule:evenodd;stroke-linejoin:round;stroke-miterlimit:1.41421;">
    <g transform="matrix(1,0,0,1,-34,-32)">
        <g transform="matrix(1,0,0,1,-6,1)">
            <rect x="40" y="31" width="451" height="227" style="fill:rgb(255,223,155);"/>
            <clipPath id="_clip1">
                <rect x="40" y="31" width="451" height="227"/>
            </clipPath>
            <g clip-path="url(#_clip1)">
                <g transform="matrix(0.502988,0,0,0.607322,240.093,101.311)">
                    <g transform="matrix(0.369277,0,0,1.22384,47.6277,-58.9733)">
                        <rect x="66" y="90.628" width="83.119" height="168.372" style="fill:white;"/>
                    </g>
                    <g transform="matrix(0.369277,0,0,1.11808,88.718,-31.5822)">
                        <rect x="66" y="90.628" width="83.119" height="168.372" style="fill:white;"/>
                    </g>
                    <g transform="matrix(0.369277,0,0,1,129.808,-1)">
                        <rect x="66" y="90.628" width="83.119" height="168.372" style="fill:white;"/>
                    </g>
                    <g transform="matrix(0.369277,0,0,1,170.899,-1.00001)">
                        <rect x="66" y="90.628" width="83.119" height="168.372" style="fill:white;"/>
                    </g>
                    <g transform="matrix(0.369277,0,0,0.953567,211.989,11.0262)">
                        <rect x="66" y="90.628" width="83.119" height="168.372" style="fill:white;"/>
                    </g>
                    <g transform="matrix(0.369277,0,0,0.871165,253.079,32.3684)">
                        <rect x="66" y="90.628" width="83.119" height="168.372" style="fill:white;"/>
                    </g>
                    <g transform="matrix(0.369277,0,0,0.779163,294.169,56.1969)">
                        <rect x="66" y="90.628" width="83.119" height="168.372" style="fill:white;"/>
                    </g>
                    <g transform="matrix(0.369277,0,0,0.383636,333.789,158.638)">
                        <rect x="66" y="90.628" width="83.119" height="168.372" style="fill:white;"/>
                    </g>
                    <g transform="matrix(0.369277,0,0,0.247863,374.827,193.803)">
                        <rect x="66" y="90.628" width="83.119" height="168.372" style="fill:white;"/>
                    </g>
                    <g transform="matrix(0.369277,0,0,0.191818,415.917,208.319)">
                        <rect x="66" y="90.628" width="83.119" height="168.372" style="fill:white;"/>
                    </g>
                </g>
                <g transform="matrix(0.545912,0,0,1,14.7027,-1.77636e-13)">
                    <g transform="matrix(0.369277,0,0,1.22384,47.6277,-58.9733)">
                        <rect x="66" y="90.628" width="83.119" height="168.372" style="fill:white;"/>
                    </g>
                    <g transform="matrix(0.369277,0,0,1.11808,88.718,-31.5822)">
                        <rect x="66" y="90.628" width="83.119" height="168.372" style="fill:white;"/>
                    </g>
                    <g transform="matrix(0.369277,0,0,1,129.808,-1)">
                        <rect x="66" y="90.628" width="83.119" height="168.372" style="fill:white;"/>
                    </g>
                    <g transform="matrix(0.369277,0,0,1,170.899,-1.00001)">
                        <rect x="66" y="90.628" width="83.119" height="168.372" style="fill:white;"/>
                    </g>
                    <g transform="matrix(0.369277,0,0,0.953567,211.989,11.0262)">
                        <rect x="66" y="90.628" width="83.119" height="168.372" style="fill:white;"/>
                    </g>
                    <g transform="matrix(0.369277,0,0,0.871165,253.079,32.3684)">
                        <rect x="66" y="90.628" width="83.119" height="168.372" style="fill:white;"/>
                    </g>
                    <g transform="matrix(0.369277,0,0,0.838555,294.169,40.8143)">
                        <rect x="66" y="90.628" width="83.119" height="168.372" style="fill:white;"/>
                    </g>
                    <g transform="matrix(0.369277,0,0,0.808593,333.737,48.5743)">
                        <rect x="66" y="90.628" width="83.119" height="168.372" style="fill:white;"/>
                    </g>
                    <g transform="matrix(0.369277,0,0,0.770514,374.827,58.4368)">
                        <rect x="66" y="90.628" width="83.119" height="168.372" style="fill:white;"/>
                    </g>
                    <g transform="matrix(0.369277,0,0,0.770514,415.917,58.4368)">
                        <rect x="66" y="90.628" width="83.119" height="168.372" style="fill:white;"/>
                    </g>
                </g>
            </g>
        </g>
    </g>
</svg>
