<?xml version="1.0" encoding="UTF-8" standalone="no"?>
<!DOCTYPE svg PUBLIC "-//W3C//DTD SVG 1.1//EN" "http://www.w3.org/Graphics/SVG/1.1/DTD/svg11.dtd">
<svg preserveAspectRatio="none" width="100%" height="100%" viewBox="0 0 451 227" version="1.1" xmlns="http://www.w3.org/2000/svg" xmlns:xlink="http://www.w3.org/1999/xlink" xml:space="preserve" xmlns:serif="http://www.serif.com/" style="fill-rule:evenodd;clip-rule:evenodd;stroke-linejoin:round;stroke-miterlimit:1.41421;">
    <g transform="matrix(1,0,0,1,-781,-32)">
        <rect x="781" y="32" width="451" height="227" style="fill:rgb(255,223,155);"/>
        <clipPath id="_clip1">
            <rect x="781" y="32" width="451" height="227"/>
        </clipPath>
        <g clip-path="url(#_clip1)">
            <g transform="matrix(1,0,0,1.39159,0,-101.422)">
                <path d="M1232,246.327C1235,249.304 1232,259 1232,259L781,259C781,259 779.98,247.574 781,242C785.698,216.333 799.792,104.279 809.188,105C818.583,105.721 827.979,221.827 837.375,246.327C840.807,255.276 856.314,254.514 865.563,252C874.958,249.445 884.354,231.945 893.75,231C903.146,230.055 912.542,242.827 921.937,246.327C930.919,249.673 946.059,260.679 950.125,252C959.521,231.945 968.917,134.833 978.312,126C987.708,117.167 997.104,191.68 1006.5,199C1015.9,206.32 1025.29,162.03 1034.69,169.918C1044.08,177.806 1053.48,237.647 1062.88,246.327C1071.99,254.749 1081.67,221.522 1091.06,222C1100.46,222.478 1109.85,245.138 1119.25,249.193C1127.92,252.935 1138,245.876 1147.44,246.327C1157.23,246.795 1168.6,254.555 1178,252C1187.4,249.445 1194.81,231.945 1203.81,231C1212.81,230.055 1227.3,241.661 1232,246.327Z" style="fill:white;fill-opacity:0.5;"/>
            </g>
            <g transform="matrix(1,0,0,0.663986,0,87.0276)">
                <path d="M1232,246.327C1235,249.304 1232,259 1232,259L781,259C781,259 779.98,247.574 781,242C785.698,216.333 799.792,104.279 809.188,105C818.583,105.721 827.979,221.827 837.375,246.327C840.807,255.276 856.314,254.514 865.563,252C874.958,249.445 884.354,231.945 893.75,231C903.146,230.055 912.542,242.827 921.937,246.327C930.919,249.673 946.059,260.679 950.125,252C959.521,231.945 968.917,134.833 978.312,126C987.708,117.167 997.104,191.68 1006.5,199C1015.9,206.32 1025.29,162.03 1034.69,169.918C1044.08,177.806 1053.48,237.647 1062.88,246.327C1071.99,254.749 1081.67,221.522 1091.06,222C1100.46,222.478 1109.85,245.138 1119.25,249.193C1127.92,252.935 1138,245.876 1147.44,246.327C1157.23,246.795 1168.6,254.555 1178,252C1187.4,249.445 1194.81,231.945 1203.81,231C1212.81,230.055 1227.3,241.661 1232,246.327Z" style="fill:white;"/>
            </g>
        </g>
    </g>
</svg>
