<?xml version="1.0" encoding="UTF-8" standalone="no"?>
<!DOCTYPE svg PUBLIC "-//W3C//DTD SVG 1.1//EN" "http://www.w3.org/Graphics/SVG/1.1/DTD/svg11.dtd">
<svg preserveAspectRatio="none" width="100%" height="100%" viewBox="0 0 670 227" version="1.1" xmlns="http://www.w3.org/2000/svg" xmlns:xlink="http://www.w3.org/1999/xlink" xml:space="preserve" xmlns:serif="http://www.serif.com/" style="fill-rule:evenodd;clip-rule:evenodd;stroke-linecap:round;stroke-linejoin:round;stroke-miterlimit:1.5;">
    <g transform="matrix(1,0,0,1,-562.622,-541)">
        <g transform="matrix(1.48421,0,0,1,503.254,510)">
            <rect x="40" y="31" width="451" height="227" style="fill:rgb(255,223,155);"/>
            <clipPath id="_clip1">
                <rect x="40" y="31" width="451" height="227"/>
            </clipPath>
            <g clip-path="url(#_clip1)">
                <g transform="matrix(0.67376,0,0,1,-339.072,-510)">
                    <path d="M562.622,732L590.513,729L618.404,738.476L646.294,729L674.185,732L702.076,725L729.188,725L759.315,738.476L785.748,738.476L813.639,732L841.53,751L869.42,743.781L897.311,735.893L925.202,724.305L953.093,731.434L980.983,746.83L1008.87,721.101L1036.77,734.642L1064.66,702.142L1093.33,675.059L1120.76,652.038L1149.43,675.059L1176.22,634.434L1204.11,707.559L1232,612.767" style="fill:none;stroke:white;stroke-width:4.5px;"/>
                </g>
                <g transform="matrix(0.67376,0,0,1,-339.072,-510)">
                    <path d="M1232,699.261L1204.11,708.736L1176.22,699.261L1148.33,702.261L1120.44,695.261L1093.33,695.261L1063.2,708.736L1036.77,708.736L1008.87,702.261L980.983,721.261L953.093,714.042L925.202,706.154L897.311,714L869.42,720.5L841.53,695L811.179,701L757.857,673L729.967,691.155L701.75,658.53L673.08,654.5L646.294,640L618.404,623L590.513,628L562.622,605.762" style="fill:none;stroke:white;stroke-width:4.5px;"/>
                </g>
                <g transform="matrix(0.67376,0,0,1,-339.072,-510)">
                    <path d="M562.622,684L590.513,716L618.404,646L646.294,700L673.08,670L701.75,687L729.188,670L757.857,650L785.748,626L813.639,636L841.53,617L869.42,628.369L897.311,633.633L925.202,673.511L953.093,686.177L983.443,683.197L1036.77,697.104L1064.66,688.087L1092.87,704.291L1121.54,706.293L1148.33,713.495L1176.22,721.938L1204.11,719.455L1232,730.5" style="fill:none;stroke:white;stroke-width:4.5px;"/>
                </g>
                <g transform="matrix(0.67376,0,0,1,-339.072,-510)">
                    <path d="M562.622,578L590.513,575L618.404,594.524L646.294,610.745L674.185,618.821L702.076,618.821L729.967,625L757.857,618.821L785.748,625L813.639,610.745L841.53,605.762L869.42,591L897.311,603L925.202,608.001L953.093,582.269L980.983,604.294L1008.87,629.889L1036.77,629.889L1064.66,642L1092.55,629.889L1118.44,594.524L1148.33,614.061L1176.22,604.294L1204.11,575.361L1232,587.881" style="fill:none;stroke:white;stroke-width:4.5px;"/>
                </g>
            </g>
        </g>
    </g>
</svg>
